<?xml version="1.0" encoding="UTF-8"?>
<svg xmlns="http://www.w3.org/2000/svg" xmlns:xlink="http://www.w3.org/1999/xlink" width="15px" height="20px" viewBox="0 0 15 20" version="1.1">
<g id="surface1">
<path style=" stroke:none;fill-rule:nonzero;fill:rgb(87.45098%,5.098039%,17.647059%);fill-opacity:1;" d="M 8.757812 11.679688 C 8.757812 11.679688 6.742188 8.960938 6.601562 8.773438 C 6.09375 8.109375 5.800781 6.75 6.519531 5.765625 C 7.011719 5.074219 7.660156 5.113281 8.128906 5.367188 C 8.480469 5.550781 8.679688 5.84375 8.847656 6.097656 C 9.019531 5.84375 9.21875 5.550781 9.566406 5.367188 C 10.035156 5.125 10.675781 5.101562 11.183594 5.765625 C 11.972656 6.804688 11.625 8.136719 11.175781 8.707031 L 8.957031 11.664062 L 8.949219 11.902344 L 10.066406 11.902344 C 11.066406 11.902344 11.835938 11.597656 12.402344 11.050781 C 13.023438 10.480469 13.492188 9.667969 13.75 8.734375 C 13.910156 8.164062 14.371094 6.136719 13.171875 4.101562 C 11.972656 2.0625 10.335938 2.238281 10.105469 2.238281 L 2.535156 2.238281 C 2.175781 2.238281 1.886719 2.625 1.886719 3.089844 L 1.886719 13.582031 C 1.867188 16.113281 3.375 18.175781 5.273438 18.214844 C 7.171875 18.242188 8.71875 16.230469 8.75 13.703125 L 8.75 11.679688 "/>
</g>
</svg>
